<?xml version="1.0" standalone="no"?>
<!DOCTYPE svg PUBLIC "-//W3C//DTD SVG 20010904//EN"
 "http://www.w3.org/TR/2001/REC-SVG-20010904/DTD/svg10.dtd">
<svg version="1.0" xmlns="http://www.w3.org/2000/svg"
 width="90.000000pt" height="90.000000pt" viewBox="0 0 90.000000 90.000000"
 preserveAspectRatio="xMidYMid meet">
<metadata>
Created by potrace 1.14, written by Peter Selinger 2001-2017
</metadata>
<g transform="translate(0.000000,90.000000) scale(0.100000,-0.100000)"
fill="#000000" stroke="none">
<path d="M364 804 c-186 -54 -297 -228 -262 -412 20 -112 99 -210 206 -260 48
-22 71 -27 142 -27 72 0 94 5 145 28 238 110 285 423 89 596 -82 72 -220 104
-320 75z m230 -43 c60 -28 124 -93 154 -160 38 -82 38 -194 0 -271 -15 -30
-42 -70 -60 -89 l-32 -34 -8 24 c-8 20 -4 28 18 48 24 20 27 30 25 75 -2 69
-17 102 -58 127 -39 25 -96 22 -139 -6 -34 -22 -57 -79 -50 -121 4 -18 2 -35
-4 -39 -5 -3 -10 -2 -10 3 0 5 -15 13 -32 16 l-33 7 28 24 c15 13 27 29 27 35
0 5 5 10 11 10 6 0 9 7 5 15 -3 8 3 19 12 25 12 8 14 13 5 16 -20 9 -15 20 14
33 l28 13 -23 12 -23 12 22 19 21 20 -24 6 c-24 6 -25 10 -12 43 6 17 4 18
-19 12 -27 -6 -33 2 -28 42 3 17 -19 15 -41 -5 -17 -15 -20 -15 -42 6 l-24 23
-7 -30 c-6 -28 -8 -30 -36 -22 -26 8 -28 7 -19 -10 17 -32 11 -40 -26 -40
l-35 0 21 -27 21 -27 -23 -19 c-13 -10 -18 -20 -13 -23 35 -15 39 -22 25 -39
-12 -15 -12 -19 3 -30 9 -7 17 -20 17 -30 0 -12 6 -16 19 -12 13 3 18 1 14 -8
-3 -8 4 -15 18 -17 34 -5 33 -23 -3 -39 -18 -8 -35 -23 -37 -34 -2 -11 -8 -31
-13 -44 l-9 -24 -25 34 c-49 65 -67 118 -67 204 -1 67 4 89 27 137 79 166 272
235 440 159z m-266 -233 c3 -14 -3 -18 -27 -18 -29 0 -41 17 -24 34 13 13 48
1 51 -16z m72 -3 c11 -13 8 -15 -19 -15 -21 0 -31 5 -31 15 0 8 8 15 19 15 10
0 24 -7 31 -15z m158 -162 c-4 -35 -45 -45 -65 -17 -12 16 -9 19 19 30 48 17
50 17 46 -13z m100 -13 c-4 -20 -52 -25 -67 -7 -6 8 -9 21 -6 29 8 21 77 0 73
-22z m-159 -88 c14 -14 21 -22 14 -18 -8 4 -16 -7 -24 -35 l-13 -41 -12 40
c-25 86 -25 92 -8 85 9 -3 28 -17 43 -31z"/>
</g>
</svg>
